<?xml version="1.0" encoding="utf-8"?>
<svg viewBox="0 0 500 500" xmlns="http://www.w3.org/2000/svg">
  <path d="M 454.676 153.211 C 538.058 300.911 429.892 483.257 259.978 481.433 C 181.12 480.587 108.704 437.838 70.006 369.29 C 29.83 298.123 32.304 217.887 68.368 156.138 C 69.351 154.454 15.152 119.578 15.152 119.578 L 213.332 42.846 L 205.156 249.26 C 205.156 249.26 177.678 228.677 158.657 215.63 C 148.978 208.992 141.489 204.305 140.921 205.274 C 97.684 279.021 158.974 392.268 260.923 393.362 C 308.238 393.869 352.229 369.159 376.325 328.537 C 415.932 261.768 388.933 181.468 328.641 146.651 C 328.641 146.651 291.043 123.894 314.792 86.96 C 339.477 48.57 381.528 75.919 381.528 75.919 C 411.377 95.019 436.675 121.324 454.676 153.211 Z" style="fill: rgb(70, 193, 164); stroke-miterlimit: 25; stroke: rgb(31, 34, 105); stroke-width: 25px; stroke-linecap: round; stroke-linejoin: round;"/>
  <path style="fill: none; stroke: rgb(255, 255, 255); stroke-linecap: round; stroke-width: 20px;" d="M 180.896 88.261 L 176.965 191.274"/>
  <path style="fill: none; stroke: rgb(255, 255, 255); stroke-width: 20px; stroke-linecap: round;" d="M 351.786 93.964 C 407.349 120.16 442.604 171.63 454.89 240.881"/>
</svg>